<svg xmlns="http://www.w3.org/2000/svg" width="480" height="480" viewBox="0 0 4800 4800"><path d="M3779 4180c-170-14-239-71-239-199 0-82 9-86 245-100 115-7 150-13 195-34 65-29 110-71 86-80-9-4-16-13-16-21s-15-23-32-33c-39-23-188-154-275-242-69-68-120-137-246-327-142-212-215-302-272-332-62-34-195-67-342-87-114-15-143-13-143 10 0 7-5 15-11 17-10 3 10 163 56 448 9 52 20 140 24 195 8 93 37 186 64 206 4 3 10 29 14 57 6 52 6 52-28 66-19 7-71 22-116 31-74 16-81 20-73 36 6 10 10 42 10 71v54l-67 32c-94 44-130 50-363 62-113 6-275 15-360 20-85 6-180 10-211 10-76 0-150 24-199 65-44 37-93 55-151 55-75 0-125-97-82-160 35-51 143-130 178-130 16 0 25-23 25-66 0-19 5-34 10-34 6 0 10-7 10-16 0-8 26-41 57-73 68-66 120-86 253-96 243-18 473-65 493-100 8-14 12-146 11-465 0-470-8-596-40-615-9-5-33-25-53-42-20-18-40-33-45-33-4 0-36-22-70-48-68-54-122-82-158-82-19 0-27 9-41 50-10 27-28 62-41 77-40 49-114 160-141 211-16 31-33 92-45 162-32 184-25 247 31 271 24 10 29 17 29 48 0 30 5 38 33 52s32 21 30 53c-5 79-58 126-141 126-58 0-109-19-125-47-7-11-25-43-42-71-16-29-35-52-42-52-16 0-72-55-115-112-57-74-73-185-65-447 5-175 3-217-11-278-10-40-23-78-30-85s-12-20-12-29-7-19-15-23c-8-3-15-12-15-19 0-13-70-79-123-117-34-24-157-147-157-157 0-5-9-16-20-26-11-9-20-25-20-35s-5-23-11-29c-19-19-23-173-6-254 29-140 29-162 0-194-21-22-28-41-31-87-4-46-10-63-32-85-32-33-60-126-60-199 0-50 23-137 43-162 5-7 8-14 6-16-2-1-22-13-44-26s-42-27-45-31c-3-3-36-32-75-64-38-31-77-68-85-81s-18-24-22-24c-5 0-8-9-8-19 0-11-5-21-11-23-15-5-22-78-14-152 7-66 7-66 38-66 63 1 136 56 271 204 69 76 126 124 185 155 16 9 27 0 76-62 76-96 133-156 192-203 26-21 50-42 51-46 2-5 10-8 18-8s14-4 14-9 10-11 23-15c12-3 32-14 44-26 12-11 26-20 32-20 5 0 11-5 13-11s22-12 43-13l40-1v96c0 76-4 104-20 135-39 76-134 194-157 194-5 0-8 7-8 15s-4 15-9 15-11 14-15 31c-3 17-16 44-28 61-20 28-20 34-9 72 8 23 18 100 24 173l10 132 75 7c42 4 134 4 206 1 129-5 235-26 386-76 200-67 255-75 470-75h195l115 38c63 20 140 43 170 50 153 36 292 129 394 266 22 30 44 57 49 58 12 6 97 128 97 141 0 6 5 11 10 11 6 0 10 7 10 15s5 15 10 15c6 0 10 6 10 13s15 35 33 63c45 70 56 90 94 164 18 36 37 72 42 80 30 48 121 283 121 313 1 53 68 330 90 369 6 10 10 26 10 37 0 24 41 135 52 139 4 2 8 11 8 20 1 10 12 35 25 57 14 22 30 51 36 65 5 13 13 27 17 30s14 18 22 34c29 56 35 66 42 66 5 0 8 5 8 11 0 23 134 176 192 219 113 84 251 233 286 309 22 49 25 67 26 195l1 141-32 55c-74 128-123 163-302 216-70 21-111 27-226 29-77 2-183 0-236-5m-1789-389 145-8-175-1c-124 0-185 3-210 13-34 13-33 13 30 8 36-3 130-8 210-12m-499-1211c16-52 33-135 38-185 5-49 17-121 27-159l18-68-27-24c-39-33-47-30-47 19-1 23-7 69-15 102-13 52-21 75-56 147-11 23-29 171-29 242 0 33 8 81 17 106l18 45 13-65c8-36 27-108 43-160"/><path fill="#fff" d="M3790 4120c-86-10-140-31-164-63-20-27-26-81-10-97 5-5 79-13 164-19 185-11 262-33 317-90 49-50 58-77 36-110-18-29-71-81-82-81-12 0-207-172-275-243-38-40-124-155-193-257-208-312-267-381-355-419-113-50-508-115-508-83 0 4-13 21-29 38-42 44-62 89-82 179-31 141-41 297-37 585 3 259 5 278 27 333 12 32 20 64 17 72-6 17-79 51-138 64-25 6-130 15-234 21-104 5-277 14-384 20-313 17-344 22-394 65-15 13-48 34-73 46-36 18-49 19-69 10-28-12-44-43-26-49 7-2 12-8 12-13 0-17 62-68 110-90 112-53 231-72 540-84 240-10 289-24 324-93 43-85 66-352 66-777 0-260-8-408-37-680-24-227-22-356 6-420 21-49 76-112 116-132 61-32 196-56 345-62 141-5 155-8 158-25 2-10-2-22-10-27-22-14-227-10-313 6-146 27-206 50-263 101-117 103-139 228-97 547l5 38-27-18c-15-10-38-28-52-40-13-13-29-23-36-23-6 0-22-11-35-25s-28-25-33-25c-6 0-25-11-43-25-21-16-53-28-82-32l-48-5 7-47c4-25 8-92 8-148 1-102 1-103-26-118-60-32-95-82-110-157-3-18-17-50-30-70-12-21-23-41-23-46 0-19-129-132-150-132-20 0-18 4 19 46 52 60 105 154 135 243 24 71 72 143 107 162 16 8 19 21 19 83 0 108-26 242-58 297-15 25-57 92-95 147-84 125-95 150-118 285-31 180-22 291 26 323 14 9 22 21 18 30-3 9 11 30 36 54 35 34 40 43 31 60-22 40-62 49-114 25-25-12-42-34-71-91-37-75-37-77-30-157 9-111 31-221 61-313 13-42 33-135 44-208 11-72 24-147 30-166 16-54 12-105-9-132-11-14-48-37-82-53-71-31-78-36-127-85-19-19-55-47-81-63-25-16-76-54-112-83-129-105-97-51 64 109 67 66 132 126 144 135 19 12 23 23 23 64 0 55-24 159-46 198-31 57-51 165-53 286-2 110 0 126 25 188 18 45 34 70 47 74 15 4 18 11 13 35-3 16-6 39-6 51-1 18-8 14-44-26-65-71-78-148-74-460l3-243-28-72c-16-39-35-77-43-83-8-7-14-16-14-20 0-9-135-150-144-150-10 0-48-33-104-90-100-103-118-186-81-375l24-123 60 2c54 1 65-2 102-31 22-18 44-44 47-57 3-14 21-48 39-77l32-53 3 44c2 23-1 55-7 69-15 40-25 135-13 127 6-3 25-41 42-84 18-42 34-79 37-82s84-4 181-2c171 3 307-10 382-37 72-27 278-83 370-102 89-18 127-21 250-16 132 4 156 8 260 41 63 21 141 44 173 52 72 18 158 56 206 92 52 39 144 131 172 172 13 19 40 53 61 75s38 43 38 48c0 4 18 34 40 66s40 62 40 67 11 25 23 44c30 44 82 139 128 232 5 10 9 24 9 31s13 34 29 59c31 48 58 117 71 178 4 19 17 82 29 140 49 235 134 475 210 595 13 22 35 59 48 83 12 23 27 48 33 55 37 44 80 103 80 111 0 11 91 99 158 152 89 71 204 201 239 269 23 44 25 60 25 158-1 101-3 112-33 167-58 110-151 168-331 205-73 16-244 18-358 5"/><path fill="#fff" d="M1510 3823c0-22 43-90 69-110 48-38 120-61 206-67 140-11 312-35 399-57 43-11 80-18 83-16 5 6-22 126-32 135-3 4-118 9-253 12-231 5-250 6-289 27-22 12-50 33-60 46s-32 27-48 30c-17 3-40 8-52 12-19 6-23 4-23-12M2636 3694c-12-32-5-548 9-664 23-187 28-190 48-33 10 76 25 174 32 218 8 44 19 131 25 193 8 96 14 123 44 185 19 39 32 74 31 76-5 4-155 40-171 41-7 0-15-7-18-16M928 1256c-33-12-77-50-78-67 0-3 15-35 34-71 34-64 35-65 27-150-13-135-39-143-40-11-2 138-57 152-95 24-18-62-20-113-6-139 5-9 19-39 30-66 29-65 21-92-34-116-24-10-45-22-47-27-2-4-26-26-54-48-75-60-129-117-148-157-22-46-23-108-2-108 8 0 15 4 15 9s11 12 24 15 57 43 97 87c113 126 140 151 199 191 66 45 130 59 151 33 8-9 24-28 37-41 12-14 22-28 22-33 0-32 287-291 323-291 6 0 19-7 29-17 17-15 18-14 18 23 0 39-58 178-77 185-21 9-131 141-137 165-4 14-21 43-38 64l-30 38 26 65c32 80 34 151 6 210-22 44-67 105-72 97-46-63-61-80-74-80-18 0-18 2 8 58 12 27 22 68 22 95 1 48 0 49-39 63-48 17-50 17-97 0m-83-337c9-14-24-49-46-49-23 0-32 15-24 40 7 22 58 29 70 9m319-31c3-14 0-29-9-37-13-13-17-12-33 2-10 9-24 17-30 17-13 0-16 22-5 33 3 4 21 7 39 7 24 0 33-5 38-22"/></svg>