<svg xmlns="http://www.w3.org/2000/svg" width="480" height="480" viewBox="0 0 4800 4800"><path d="M1603 4485c-58-29-97-70-124-130-18-38-19-124-19-1974 0-1489 3-1943 12-1975 16-55 99-138 154-154 105-31 207-5 316 81 36 28 104 81 150 116 46 36 117 94 159 130 73 64 118 100 279 226 122 95 220 174 290 235 36 31 102 85 148 121 227 175 340 266 357 286 10 13 57 49 259 205 160 122 249 211 264 264 39 135-22 276-146 334-55 26-261 102-462 170-137 47-243 86-266 98-12 6-39 16-60 21-22 6-75 23-119 39s-163 59-265 96-213 78-248 92c-34 13-69 24-78 24-8 0 54 66 138 148 84 81 202 197 263 257 61 61 248 243 416 406 529 515 514 500 533 551 28 72 19 171-20 234-44 72-108 108-198 112-128 7-80 49-1190-1041l-181-177-5 533-5 534-30 49c-45 72-109 108-199 112-61 3-78 0-123-23m457-2180c67-23 469-167 595-212 71-26 153-55 280-101 39-13 94-34 124-45l54-21-39-33c-21-19-82-68-134-109-52-40-122-95-156-121-33-27-98-79-144-118-85-72-194-158-335-268-44-34-134-107-201-163-66-55-126-104-132-108-9-5-12 157-12 664 0 636 1 672 18 665 9-4 46-17 82-30"/></svg>