<svg xmlns="http://www.w3.org/2000/svg" width="480" height="480" viewBox="0 0 4800 4800"><path d="M872 4554c-56-28-92-67-117-127-13-32-15-263-15-2032s2-2000 15-2032c26-63 62-100 126-132 51-26 74-31 131-31 66 0 74 3 216 76 81 42 210 109 287 149s201 105 275 145c74 39 162 85 195 100 33 16 71 36 85 44s94 51 178 95l152 80 153-80c83-44 163-87 177-95s52-28 85-44c33-15 121-61 195-100 74-40 198-105 275-145s206-107 287-149c142-73 150-76 216-76 123 0 232 75 263 179 7 24 9 678 7 2037l-3 2001-30 49c-81 129-260 153-382 50-17-14-43-50-57-78l-26-52V2623c0-970-2-1763-5-1763-10 0-179 86-490 250-66 35-169 89-230 120-60 32-167 87-237 124-122 63-131 66-198 66s-76-3-198-66c-70-37-176-92-237-124-60-31-164-85-230-120-311-164-480-250-490-250-3 0-5 793-5 1763v1763l-26 52c-64 128-215 179-342 116"/><path fill="#fff" d="M920 4452c-21-11-44-35-58-63l-22-44 2-1965 3-1965 23-38c30-47 68-67 128-67 40 0 77 16 253 106 113 59 289 149 391 202 102 52 239 123 305 157s192 99 281 145l161 82 692-346c616-308 697-346 739-346 56 0 104 26 132 72 20 33 20 55 20 1991 0 1809-1 1962-17 1994-49 104-206 97-257-10-15-32-16-188-16-1851 0-999-2-1816-5-1816s-280 137-616 305c-597 298-612 305-671 305-57 0-72-6-306-126-515-264-661-339-799-410-78-41-144-74-147-74s-6 824-6 1831c0 1669-1 1834-16 1865-34 72-126 103-194 66"/></svg>