<svg xmlns="http://www.w3.org/2000/svg" width="480" height="480" viewBox="0 0 4800 4800"><path d="M1125 4315c-23-22-25-32-25-108 0-46-3-178-7-293l-6-209-278 3-279 3-23-23c-22-23-24-33-30-198-12-304-11-327 18-355 22-22 32-25 105-25h80v-360h-80c-73 0-83-3-105-25l-25-24v-612l25-24c21-22 33-25 102-25h78l-3-180-3-180h-80c-72 0-82-3-104-25l-25-24v-502l26-24 27-25h597V509l25-24 24-25h249c247 0 249 0 270 23 19 20 22 35 22 105v82h370v-80c0-73 3-83 25-105l24-25h602l24 25c22 22 25 32 25 105v80h370v-83c0-74 3-86 23-105 23-21 30-22 271-22h247l24 25 25 24v571h561l24 25 25 24v254c0 252 0 254-23 275-20 19-35 22-105 22h-82v360h80c73 0 83 3 105 25l25 24v612l-25 24c-22 22-32 25-105 25h-80v360h80c73 0 83 3 105 25l25 24v502l-25 24-24 25h-571v571l-25 24-24 25h-502l-24-25c-22-22-25-32-25-105v-80h-360v80c0 73-3 83-25 105l-24 25h-608l-22-24c-19-20-24-40-28-106l-6-82-30 6c-16 3-96 6-178 6h-149v80c0 73-3 83-25 105l-24 25h-492z"/><path fill="#fff" d="M1152 3752c-26-26-27-32-8-58 14-19 40-19 1265-22l1251-3 12 26c10 22 9 29-8 45-18 19-55 19-1255 26l-1236 7zM1073 3659c-12-4-24-16-26-26-3-10-9-572-12-1249-7-1147-6-1231 10-1247 20-20 48-22 64-4 11 14 37 2490 25 2508-11 18-39 26-61 18M3697 3652c-16-17-17-119-17-1258 0-681 4-1244 8-1250 15-24 50-26 72-4l20 20-6 1238c-6 1087-8 1239-22 1255-19 22-35 22-55-1M1465 3477c-12-19-14-31-6-45 9-18 29-19 303-25 161-4 580-7 930-7 565 0 638 2 652 16 20 19 20 35 2 59-12 17-53 18-938 23l-926 5zM3427 3332c-16-17-17-97-17-940v-922l25-16c23-15 27-15 52 1l26 18-6 926c-7 852-8 927-24 939-23 17-37 15-56-6M1322 3328c-16-21-29-1853-12-1873 16-19 54-19 70-1 18 22 28 1849 10 1871-15 18-54 20-68 3M1474 1365c-15-23-15-27 0-50l16-25h1860l16 25c15 23 15 27 0 50l-16 25H1490zM1156 1098c-20-29-20-34 4-58 20-20 33-20 1258-20 976 0 1241 3 1254 13 26 21 28 44 4 66l-22 21H1171z"/></svg>