<svg xmlns="http://www.w3.org/2000/svg" width="480" height="480" viewBox="0 0 4800 4800"><path d="M2110 4074c-19-2-84-9-145-15-134-13-325-50-437-85-92-28-327-139-372-175l-29-23 6-185c8-266 44-418 143-611 90-175 249-351 468-518l103-78-39-49c-123-161-114-356 29-571l35-53-47-53c-67-74-89-122-89-189 1-89 42-140 236-292 110-86 161-148 212-257l36-76-20-39c-28-54-27-150 1-210 38-81 110-125 204-125s166 44 204 125c28 60 29 156 1 210-26 51-26 54 11 128 50 99 103 162 207 244 194 152 235 203 236 292 0 67-22 115-89 189l-47 53 35 53c143 215 152 410 29 571l-39 49 103 78c219 167 378 343 468 518 99 193 135 345 143 611l6 185-29 23c-45 36-280 147-369 174-237 74-438 98-825 102-168 2-321 1-340-1"/><path fill="#fff" d="M2080 3914c-184-21-240-29-341-50-148-31-229-59-355-122l-101-51 4-83c9-213 40-362 102-501 61-135 168-279 285-382l67-58 67 26c207 81 585 113 867 73 153-22 233-40 317-73l67-26 67 58c117 103 224 247 285 382 62 139 93 288 102 501l4 83-101 51c-120 61-203 90-334 118-208 45-285 52-632 55-184 2-351 1-370-1M2180 2614c-63-7-157-23-208-35l-93-21 73-54c114-86 121-111 49-187-50-53-101-123-101-138 0-5 225-9 500-9s500 4 500 9c0 15-51 85-101 138-72 76-65 101 49 187l73 54-88 21c-116 27-336 51-448 50-49-1-142-7-205-15M1890 2008c0-26 49-115 103-190 30-42 58-85 61-96 10-31-8-63-83-139-38-40-72-82-76-93-10-32 15-62 123-146 53-43 121-100 151-128 60-58 141-174 167-241 17-45 17-45 64-45s47 0 64 45c26 67 107 183 167 241 30 28 98 85 151 128 108 84 133 114 123 146-4 11-38 53-76 93-75 76-93 108-83 139 3 11 31 54 61 96 54 75 103 164 103 190 0 9-109 12-510 12s-510-3-510-12m575-184 36-64h84c100 0 101-2 50-87-19-32-35-64-35-72 0-7 16-39 35-71 53-87 51-90-49-90h-85l-41-75c-23-41-47-75-53-75-7 0-31 34-55 75l-42 75h-85c-46 0-86 4-89 8-3 5 15 41 39 82l44 74-26 45c-15 25-30 50-35 56-4 5-8 19-8 32 0 22 3 23 79 23h80l37 63c52 87 54 89 70 76 7-6 29-40 49-75"/></svg>