<svg xmlns="http://www.w3.org/2000/svg" width="480" height="480" viewBox="0 0 4800 4800"><path d="M683 4409c-23-12-60-41-83-65-57-62-56-100 8-177 89-108 193-170 332-200 141-31 225-38 565-47 400-10 512-21 572-56 44-25 99-87 126-140l16-32-46-11c-92-24-196-97-239-168-37-62-58-175-45-230 17-68 46-117 87-151l36-30-108-7c-222-13-368-49-478-117-55-34-75-54-100-98-28-50-31-63-31-140 0-73 4-92 28-137 39-76 81-118 159-164 123-72 165-79 466-79h264l-7-31c-4-18-23-45-44-63-95-82-161-185-161-257-1-31-6-36-51-59-28-13-73-48-100-78-80-87-97-187-59-337 24-96 56-153 125-225l52-55-7-72c-15-156-131-243-309-230-90 6-134 25-161 70-55 90 9 208 130 240 22 6 22 7 8 29-24 38-76 58-148 58-109-1-210-61-255-154-25-52-27-64-23-149 3-77 9-103 32-152 38-76 100-135 192-180 118-57 212-78 318-70 212 15 360 80 475 211 41 47 103 162 116 217 7 26 10 27 65 27s58-1 65-27c13-55 75-170 116-217 115-131 263-196 475-211 106-8 200 13 318 70 92 45 154 104 192 180 23 49 29 75 32 152 4 85 2 97-23 149-45 93-146 153-255 154-72 0-124-20-148-58-14-22-14-23 8-29 121-32 185-150 130-240-27-45-71-64-161-70-178-13-294 74-309 230l-7 72 52 55c69 72 101 129 125 225 38 150 21 250-59 337-27 30-72 65-100 78-45 23-50 28-51 59 0 56-53 154-118 218-46 44-61 67-65 96l-6 37h252c288 0 333 8 455 79 78 46 120 88 159 164 24 45 28 64 28 137 0 77-3 90-31 140-69 123-266 196-578 215l-108 7 36 30c41 34 70 83 87 151 13 55-8 168-45 230-43 71-147 144-239 168l-46 11 16 32c27 53 82 115 126 140 60 35 172 46 572 56 540 14 683 45 829 180 82 76 116 125 116 168 0 30-9 44-52 87-33 31-69 55-94 63-65 19-160 14-259-13-137-38-278-47-655-39-371 7-545-3-692-40l-88-22-87 22c-148 37-322 47-693 40-377-8-518 1-655 39-115 32-221 33-282 4"/><path fill="#fff" d="M766 4261c-17-7-14-12 32-49 114-89 230-110 687-122 504-13 675-38 849-121l66-32 66 32c174 83 344 107 854 121 213 6 374 15 422 24 78 14 203 72 263 121 26 21 27 25 11 31-9 4-47-1-84-11-215-56-337-65-780-58-357 6-509-3-633-38-93-27-145-27-237-1-121 35-256 43-709 41-445-3-545 4-660 45-55 19-123 27-147 17M2186 3459c-145-35-170-198-44-285 36-25 45-27 190-31 186-6 296 6 335 37 101 78 95 208-12 264-36 19-59 21-235 23-107 1-212-2-234-8M2095 2939c-22-4-78-8-125-8-100-1-346-35-393-55-41-17-91-74-107-120-10-32-9-42 9-79 25-52 100-116 185-157 88-44 163-49 736-49s648 5 736 49c85 41 160 105 185 157 18 37 19 47 9 79-19 57-75 112-131 128-27 8-102 20-166 25-65 6-170 16-233 23-133 14-646 19-705 7M2311 2201c-119-45-181-126-181-240 0-47 0-47-54-73-122-60-162-129-154-264 6-92 40-165 106-227l49-45 49 10c92 18 187-30 216-108 11-32 15-34 58-34s47 2 58 34c29 78 124 126 216 108l49-10 49 45c66 62 100 135 106 227 8 135-32 204-154 264-53 26-54 27-54 70 0 103-51 182-146 227-76 36-144 41-213 16m-21-511c26-26 25-48-5-92-28-42-99-74-139-64-14 3-33 17-42 30-21 33-5 62 44 83 20 8 47 26 59 39 27 29 56 31 83 4m303-4c12-13 39-31 59-39 49-21 65-50 44-83-22-33-58-40-112-19-46 17-94 72-94 107 0 24 35 58 60 58 12 0 31-11 43-24"/></svg>