<svg xmlns="http://www.w3.org/2000/svg" width="480" height="480" viewBox="0 0 4800 4800"><path d="M1705 4279c-38-4-201-5-361-2-341 7-361 3-444-77-57-55-64-80-59-204 4-75 7-89 34-128 42-59 119-115 185-133 137-39 141-45 151-220 4-71 8-132 8-134 1-1 46-49 100-105 73-75 102-112 110-141 17-62 14-460-5-596-11-84-14-178-12-359l3-245-27-55c-37-75-44-85-110-159-129-143-218-398-218-625 0-121 8-147 58-200 81-84 165-116 307-116 114 0 173 25 240 105 39 45 47 63 56 117 6 35 18 71 28 81 24 24 133 39 186 26 68-17 76-29 86-120 10-89 25-119 83-163 56-42 149-59 311-53 165 5 188 13 261 89 63 65 74 85 74 138 0 31 6 47 25 64 34 32 103 49 170 44 84-7 106-28 131-127 24-92 44-119 113-152 41-20 63-22 201-23 181-1 205 6 269 83 69 83 97 202 94 399-4 178-24 241-123 372-210 281-200 257-211 495-4 105-13 296-20 425-6 129-10 296-7 370 5 119 8 142 31 192 25 53 73 113 107 134 24 15 66 76 78 114 6 19 12 85 15 146 2 61 9 120 16 131 14 28 61 43 130 43 85 0 124 15 171 66 66 72 80 111 80 237 0 121-8 146-64 194-68 60-109 67-380 57-404-14-934-9-1057 10-83 12-176 16-425 15-176-1-350-6-389-10"/></svg>