<svg xmlns="http://www.w3.org/2000/svg" width="480" height="480" viewBox="0 0 4800 4800"><path d="M2125 4614c-125-14-318-65-399-106-122-62-176-129-176-217 0-126 97-208 328-277 104-31 115-47 55-79s-206-183-268-278c-90-139-141-272-189-497-29-132-36-211-36-395 0-328 47-548 167-790 57-115 57-115 244-400 86-132 180-280 208-330l52-90-23-15c-49-32-68-62-68-105 0-53 29-84 106-116 41-17 53-27 48-38-21-50-33-107-28-130 9-38 94-231 117-264 17-24 25-28 61-25l41 3 57 116c71 144 79 179 61 244-21 76-21 76 20 91 93 33 131 91 103 158-8 20-29 44-46 54-16 9-30 21-30 25 0 16 113 202 260 427 180 275 228 357 279 480 98 235 126 394 125 720 0 219-2 244-27 365-39 181-72 286-122 386-76 154-180 284-295 369-70 53-87 84-52 94 135 39 177 53 234 82 185 93 222 246 89 367-68 61-173 105-346 144-92 20-142 25-310 28-110 1-218 1-240-1"/><path fill="#fff" d="M2092 4450c-163-23-331-85-372-137l-20-26 22-24c35-37 76-59 162-87 43-14 80-26 82-26s4 31 4 70v69l38 10c20 6 80 18 132 27 117 20 324 14 450-13l85-18 3-72c2-40 4-73 5-73s30 9 64 20c122 38 199 89 191 127-8 44-140 105-303 139-83 18-449 27-543 14"/><path fill="#fff" d="m2163 4173-33-4v-145l86 15c71 12 102 13 177 3 51-7 102-15 115-18 23-6 23-5 20 67-3 73-3 74-33 80-33 7-280 8-332 2M2181 3875c-266-75-468-346-566-760-37-156-29-517 15-730 47-228 113-361 372-755 126-192 204-319 239-393l23-47h103l61 109c33 61 132 219 220 353 182 277 230 360 278 474 80 194 116 394 117 654 0 170-28 360-79 530-80 262-255 471-463 551-74 29-241 36-320 14M2207 1069c-21-5-48-14-59-20-21-12-21-12 4-25 68-36 237-38 323-4 28 11 29 12 11 25-42 31-193 44-279 24M2281 853c-34-68-34-77 1-157 18-42 35-76 38-76s20 34 38 75c35 80 35 89 1 158-13 24-26 37-39 37s-26-13-39-37"/></svg>