<svg xmlns="http://www.w3.org/2000/svg" width="480" height="480" viewBox="0 0 4800 4800"><path d="M1155 4385c-22-21-25-33-25-93 0-79 13-158 42-257 45-153 114-250 347-488 172-176 256-280 306-377 45-88 105-311 105-393 0-31-1-31-82 49-135 132-283 251-483 389-95 66-175 145-277 277-84 107-137 138-236 138-59 0-66-2-98-34-19-19-34-40-34-48 0-10-24-13-108-13-123 0-169-16-242-81-74-66-119-203-120-358 0-62 7-98 31-170 34-98 190-422 290-601 189-337 274-478 322-533 50-58 98-134 119-187 15-38 15-42-5-80-18-33-22-62-25-168-4-114-2-130 14-149 46-50 118-62 183-29 44 23 161 145 193 202 21 38 24 39 75 39 49 0 54-2 69-32 46-92 208-253 259-258 45-5 66 2 100 31 42 37 60 75 75 162 19 103 20 107 33 107 7 0 37-34 66-76l53-76-26-70c-64-171-77-340-37-460 43-129 109-201 249-271 72-35 93-41 165-45 107-6 179 10 257 56 115 66 216 184 279 322l29 64 18-30c40-63 70-96 114-123 65-42 151-65 221-58l57 5 42-61c41-60 42-62 22-77-11-8-36-28-56-43-38-30-46-60-23-91 20-27 63-22 112 13 24 17 48 31 53 31 6 0 20-16 32-35 24-39 58-52 89-36 34 19 37 56 7 99-14 21-26 40-26 43s21 21 48 39c26 19 50 39 54 44 23 34-8 86-51 86-12 0-45-16-73-35l-51-34-44 62c-24 34-42 64-40 67 68 119 68 268 2 369-19 29-35 55-35 57s13 4 29 4 61 7 99 15c186 39 344 157 417 312 30 63 55 168 55 233 0 153-101 302-253 374-100 48-198 67-369 73l-147 6-41 58c-22 31-40 62-40 68s20 58 44 115c48 112 87 238 135 435 75 304 127 887 119 1318-3 176-4 182-27 207l-24 26H1179z"/><path fill="#fff" d="M3195 3913c0-492-3-547-51-848-31-194-50-271-109-443-89-261-215-473-380-637-124-123-235-194-412-260-70-27-130-50-132-51-2-2 4-32 14-68 20-75 4-72 175-30 112 28 285 111 380 183 93 70 225 210 302 321 197 285 336 711 397 1225 27 223 39 685 24 953l-6 122h-202zM544 3097c-96-87-16-223 113-191 52 13 87 64 79 119-7 57-60 105-116 105-32 0-48-7-76-33M1035 2205c-60-59-12-219 94-318 42-39 56-47 88-47 118 1 124 149 13 296-71 94-145 120-195 69M3274 2142c-9-9-43-60-77-112-82-129-245-289-402-398-219-152-394-231-600-272-70-14-85-24-85-56 0-17 8-28 26-34 20-8 24-15 19-28-5-9-24-62-43-117-32-91-36-110-36-210 0-122 12-166 67-248 42-64 135-133 205-153 87-26 194-16 277 25 219 108 387 403 400 701 2 52 4 96 5 97 0 1 20-6 43-16 149-64 385-83 538-43 178 47 309 144 375 278 47 94 58 204 29 282-44 117-141 201-289 248-68 22-105 27-231 31-100 3-153 9-160 17-19 23-45 26-61 8m378-126c197-42 312-171 288-321-20-123-95-222-213-280-108-53-184-69-317-69-135 0-220 19-332 71-65 30-82 43-114 91-21 30-45 62-54 70-13 13-9 19 30 51 92 74 234 219 302 309l69 92h137c79 0 165-6 204-14m-768-551c44-69 47-80 53-157 11-157-44-352-138-493-165-246-400-302-557-132-54 60-73 105-79 199-7 92 13 185 62 298 18 41 35 82 38 91s21 19 42 23c94 18 330 125 450 205 33 22 65 40 71 40 6 1 32-33 58-74"/></svg>